<svg height="457pt" viewBox="-5 0 457 457.56545" width="457pt" xmlns="http://www.w3.org/2000/svg"><path d="m324.589844 88h18.402344c-.398438 4.300781-1.171876 8.558594-2.320313 12.71875-5.109375-4.546875-10.476563-8.796875-16.082031-12.71875zm0 0" fill="#3d9ae2"/><path d="m420.109375 430.082031c2.480469 2.441407 3.097656 6.203125 1.527344 9.3125-1.570313 3.105469-4.96875 4.835938-8.40625 4.285157l-12.878907-2.078126-5.921874 11.597657c-1.558594 3.089843-4.9375 4.8125-8.355469 4.265625s-6.085938-3.242188-6.605469-6.664063l-2.078125-12.800781-12.800781-2.078125c-3.421875-.519531-6.117188-3.1875-6.664063-6.605469-.546875-3.417968 1.175781-6.796875 4.265625-8.355468l11.597656-5.921876-2.078124-12.878906c-.550782-3.4375 1.179687-6.835937 4.289062-8.40625 3.105469-1.570312 6.867188-.953125 9.308594 1.527344l9.203125 9.199219 11.519531-5.921875c3.097656-1.625 6.894531-1.042969 9.371094 1.429687 2.476562 2.476563 3.054687 6.273438 1.429687 9.371094l-5.921875 11.519531zm0 0" fill="#ff5023"/><path d="m396.511719 200.398438c-1.691407-.292969-3.40625-.425782-5.121094-.398438-22.089844 0-40 17.910156-40 40s17.910156 40 40 40c.453125.011719.910156-.011719 1.359375-.078125 20.824219-.65625 37.644531-17.214844 38.628906-38.023437.984375-20.8125-14.199218-38.882813-34.867187-41.5zm0 0" fill="#acabb1"/><path d="m311.390625 16-8 16v16l-16 8v24l24 8h31.601563c.238281-2.640625.398437-5.28125.398437-8 .011719-25.183594-11.847656-48.898438-32-64zm0 0" fill="#00ccb3"/><path d="m322.589844 133.761719c-13.277344 14.65625-31.519532 23.867187-51.199219 25.839843v-23.601562l8-8v-16h16zm0 0" fill="#00ccb3"/><path d="m324.589844 88h-13.199219l-24-8v-24l16-8v-16l8-16c-13.84375-10.390625-30.691406-16.00390625-48-16-10.175781-.03125-20.257813 1.925781-29.679687 5.761719l13.679687 18.238281v24l8 8v16l-24 16v16l16 8v16h-24l-32.320313-13.839844c13.199219 27.992188 41.371094 45.847656 72.320313 45.839844 2.71875 0 5.359375-.160156 8-.398438v-23.601562l8-8v-16h16l27.199219 21.761719c8.585937-9.410157 14.785156-20.738281 18.082031-33.042969-5.109375-4.546875-10.476563-8.796875-16.082031-12.71875zm0 0" fill="#3d9ae2"/><path d="m247.390625 48v-24l-13.679687-18.238281c-23.675782 9.402343-41.425782 29.5625-47.761719 54.238281-4.699219 18.09375-2.886719 37.265625 5.121093 54.160156l32.320313 13.839844h24v-16l-16-8v-16l24-16v-16zm0 0" fill="#00ccb3"/><path d="m60.589844 76.960938c3.089844 1.558593 4.8125 4.9375 4.265625 8.355468-.546875 3.417969-3.242188 6.085938-6.664063 6.605469l-12.800781 2.078125-2.082031 12.800781c-.515625 3.421875-3.183594 6.117188-6.601563 6.664063s-6.796875-1.175782-8.355469-4.265625l-5.921874-11.597657-12.878907 2.078126c-3.4375.550781-6.835937-1.179688-8.40625-4.285157-1.570312-3.109375-.953125-6.871093 1.527344-9.3125l9.199219-9.203125-5.921875-11.519531c-1.625-3.097656-1.046875-6.894531 1.429687-9.371094 2.476563-2.472656 6.273438-3.054687 9.371094-1.429687l11.519531 5.921875 9.199219-9.199219c2.441406-2.480469 6.207031-3.097656 9.3125-1.527344 3.105469 1.570313 4.839844 4.96875 4.289062 8.40625l-2.078124 12.878906zm0 0" fill="#ff5023"/><path d="m383.390625 224h16v16h-16zm0 0" fill="#898890"/><path d="m391.390625 248h16v16h-16zm0 0" fill="#898890"/><path d="m391.390625 56h16v16h-16zm0 0" fill="#ee8700"/><path d="m431.390625 104h16v16h-16zm0 0" fill="#ee8700"/><path d="m111.390625 8h16v16h-16zm0 0" fill="#ee8700"/><path d="m143.390625 136h16v16h-16zm0 0" fill="#ee8700"/><path d="m55.558594 224.359375-16-.71875c3.316406-72.695313 49.136718-136.617187 116.917968-163.097656l5.824219 14.914062c-61.886719 24.171875-103.722656 82.53125-106.742187 148.902344zm0 0" fill="#ff9811"/><path d="m223.390625 416v-16c65.632813-.121094 125.226563-38.328125 152.734375-97.917969l14.53125 6.679688c-30.117188 65.265625-95.386719 107.109375-167.265625 107.238281zm0 0" fill="#ff9811"/><path d="m382.710938 178.542969c-6.496094-19.382813-16.492188-37.40625-29.496094-53.183594l12.351562-10.160156c14.25 17.277343 25.203125 37.023437 32.320313 58.257812zm0 0" fill="#ff9811"/><path d="m207.390625 296 16 24v40l-24 24v16l-32 8-8 24h-24l-16-16v-176l16-16h24l8 24h24l16 16zm0 0" fill="#ed539d"/><path d="m71.390625 408-32-8v-16l-24-24v-40l16-24v-32l16-16h24l8-24h24l16 16v176l-16 16h-24zm0 0" fill="#ea348b"/><g fill="#c61469"><path d="m159.390625 272h-16v-8c0-2.121094.84375-4.15625 2.34375-5.65625l10.34375-10.34375c3.125-3.121094 8.1875-3.121094 11.3125 0 3.121094 3.125 3.121094 8.1875 0 11.3125l-8 8zm0 0"/><path d="m199.390625 320h-16v-8c0-2.121094.84375-4.15625 2.34375-5.65625l10.34375-10.34375c3.125-3.121094 8.1875-3.121094 11.3125 0 3.121094 3.125 3.121094 8.1875 0 11.3125l-8 8zm0 0"/><path d="m161.734375 333.65625-16-16c-1.5-1.5-2.34375-3.535156-2.34375-5.65625v-24h16v20.6875l13.65625 13.65625zm0 0"/><path d="m156.078125 408-10.34375-10.34375c-1.5-1.5-2.34375-3.535156-2.34375-5.65625v-8h16v4.6875l8 8c3.121094 3.125 3.121094 8.1875 0 11.3125-3.125 3.125-8.1875 3.125-11.3125 0zm0 0"/><path d="m199.390625 376c-4.417969 0-8-3.582031-8-8v-16h16v16c0 4.417969-3.582031 8-8 8zm0 0"/><path d="m175.390625 376h-16v-12.6875l-5.65625-5.65625 11.3125-11.3125 8 8c1.5 1.5 2.34375 3.535156 2.34375 5.65625zm0 0"/></g><path d="m95.390625 272h-16v-4.6875l-8-8c-3.125-3.125-3.125-8.1875 0-11.3125 3.125-3.121094 8.1875-3.121094 11.3125 0l10.34375 10.34375c1.5 1.5 2.34375 3.535156 2.34375 5.65625zm0 0" fill="#a71159"/><path d="m55.390625 320h-16v-4.6875l-8-8c-3.125-3.125-3.125-8.1875 0-11.3125 3.125-3.121094 8.1875-3.121094 11.3125 0l10.34375 10.34375c1.5 1.5 2.34375 3.535156 2.34375 5.65625zm0 0" fill="#a71159"/><path d="m77.046875 333.65625-11.3125-11.3125 13.65625-13.65625v-20.6875h16v24c0 2.121094-.84375 4.15625-2.34375 5.65625zm0 0" fill="#a71159"/><path d="m71.390625 408c-3.125-3.125-3.125-8.1875 0-11.3125l8-8v-4.6875h16v8c0 2.121094-.84375 4.15625-2.34375 5.65625l-10.34375 10.34375c-3.125 3.125-8.1875 3.125-11.3125 0zm0 0" fill="#a71159"/><path d="m39.390625 376c-4.417969 0-8-3.582031-8-8v-16h16v16c0 4.417969-3.582031 8-8 8zm0 0" fill="#a71159"/><path d="m79.390625 376h-16v-16c0-2.121094.84375-4.15625 2.34375-5.65625l8-8 11.3125 11.3125-5.65625 5.65625zm0 0" fill="#a71159"/></svg>